<?xml version="1.0" encoding="utf-8"?>
<!-- Generator: Adobe Illustrator 21.1.0, SVG Export Plug-In . SVG Version: 6.00 Build 0)  -->
<svg version="1.1"
	 id="svg2" inkscape:version="0.91 r13725" sodipodi:docname="MH-S412_icon.svg" xmlns:cc="http://creativecommons.org/ns#" xmlns:dc="http://purl.org/dc/elements/1.1/" xmlns:inkscape="http://www.inkscape.org/namespaces/inkscape" xmlns:rdf="http://www.w3.org/1999/02/22-rdf-syntax-ns#" xmlns:sodipodi="http://sodipodi.sourceforge.net/DTD/sodipodi-0.dtd" xmlns:svg="http://www.w3.org/2000/svg"
	 xmlns="http://www.w3.org/2000/svg" xmlns:xlink="http://www.w3.org/1999/xlink" x="0px" y="0px" viewBox="0 0 244.8 244.7"
	 style="enable-background:new 0 0 244.8 244.7;" xml:space="preserve">
<style type="text/css">
	.st0{fill:none;stroke:#000000;stroke-linejoin:bevel;}
	.st1{fill:none;}
	.st2{fill:none;stroke:#000000;stroke-width:2;stroke-linecap:round;stroke-linejoin:round;stroke-miterlimit:10;}
</style>
<sodipodi:namedview  bordercolor="#666666" borderopacity="1" fit-margin-bottom="5" fit-margin-left="5" fit-margin-right="5" fit-margin-top="5" gridtolerance="10" guidetolerance="10" id="namedview194" inkscape:current-layer="svg2" inkscape:cx="74.609338" inkscape:cy="170.23821" inkscape:pageopacity="0" inkscape:pageshadow="2" inkscape:window-height="781" inkscape:window-maximized="0" inkscape:window-width="1321" inkscape:window-x="0" inkscape:window-y="0" inkscape:zoom="1" objecttolerance="10" pagecolor="#ffffff" showgrid="false">
	</sodipodi:namedview>
<path class="st0" d="M244.3,1.9c0-0.8-0.6-1.4-1.4-1.4"/>
<path class="st0" d="M0.5,1.9c0-0.8,0.7-1.4,1.5-1.4"/>
<path class="st0" d="M0.5,242.8c0,0.8,0.7,1.4,1.5,1.4"/>
<path class="st0" d="M244.3,242.8c0,0.8-0.6,1.4-1.4,1.4"/>
<path id="path115" inkscape:connector-curvature="0" class="st1" d="M123,98.8c-1.7,0-3.1,1.4-3.1,3.1s1.4,3.1,3.1,3.1
	s3.1-1.4,3.1-3.1C126.1,100.1,124.7,98.8,123,98.8z"/>
<g>
	<path class="st2" d="M156.1,199.1c1,2,2.8,2.8,4.8,3.3c3.7,1,7.3,1,11-0.3c0.4-0.1,1-0.2,1.2-0.5c0.8-1.3,2.1-1.5,3.5-1.7
		c4.8-0.9,9.1-2.9,13.2-5.4c6.5-4.1,13-8.4,19-13.2c3.4-2.8,6.1-6.2,7.1-10.6c1.1-4.9,2.2-9.8,2.9-14.8c0.3-1.9,0.9-3.6,1-5.6
		c0.2-2.7,0.4-5.4,0.3-8.2c-0.1-1.1,0.1-2.2,0.1-3.3c0-5.2-1.8-9.8-4.8-13.9c-2.5-3.4-5.9-6-9.2-8.6c-10.3-8.1-21.2-15.2-32.1-22.4
		c-17.9-11.9-35.8-23.9-54-35.3c-6.5-4.1-12.9-8.4-19.6-12.1c-4.9-2.7-10.2-4.5-15.8-4.8c-5.8-0.3-11.3,0.8-16.6,2.7
		c-7.4,2.7-14.6,5.8-21.3,10c-4.2,2.6-7.5,6-9,10.9c-0.7,2.2-1,4.5-0.7,6.7c0.4,2.6,2.1,4.7,4,6.3c3.2,2.7,6.5,5.3,9.8,8
		c5.4,4.4,10.8,8.8,16.1,13.2c4.2,3.5,8.3,7,12.6,10.4c6.7,5.5,13.5,10.8,20.2,16.3c6.3,5.2,12.7,10.3,19.1,15.3
		c9.7,7.6,19.2,15.4,29.5,22.1c4.1,2.7,8.7,4.2,13.3,5.4c4.6,1.2,9.3,1.5,14,0.8c4.2-0.7,8.3-2.1,12.2-3.9c5.8-2.8,11.3-6,16.8-9.4
		c2.8-1.7,5.6-3.5,8.3-5.4c2.8-2,4.9-4.6,6.4-7.6c0.2-0.4,0.2-1,0.8-1.2"/>
	<path class="st2" d="M37.4,86c1.3,1.8,2.5,3.7,4.2,5.1c2.8,2.2,5.6,4.4,8.4,6.6c2.7,2.1,5.4,4.3,8.1,6.5c4.4,3.6,8.7,7.1,13.1,10.7
		c3.1,2.6,6.2,5.2,9.4,7.8c6.2,5,12.3,10,18.5,15.1c4.9,4,9.7,8,14.5,11.9c6.8,5.5,13.7,11,20.6,16.4c4.2,3.2,8.3,6.6,12.6,9.6
		c5.7,4.1,12.2,6,19.2,6.6c4.3,0.4,8.5,0.2,12.7-0.6c3.9-0.8,7.6-2.1,11.1-4.1c0.3-0.2,0.6-0.4,0.6-1c0.1-1.7,1-3.2,2.1-4.5
		c3.8-4.2,7.9-8,13.1-10.5c1.5-0.7,3.1-1.3,4.9-0.7c2.4,0.9,3.1,4.1,2.5,6.2c-0.4,1.2-1.1,2.4-2,3.3c-3.2,3.4-6.8,6.4-10.9,8.7
		c-2.3,1.3-4.7,1.9-7.4,0.8c-1.2-0.5-1.9-1.3-2.2-2.5"/>
	<path class="st2" d="M113.8,167.4c-0.2-1.4-0.3-2.9-0.7-4.2c-0.8-2.9-2.7-5.1-4.9-7c-1.8-1.6-3.7-3.2-5.5-4.8
		c-3.1-2.7-6.1-5.4-9.2-7.9c-2.8-2.3-5.4-4.8-8.2-7.1c-3-2.5-6-5.1-9.1-7.6c-2.8-2.4-5.6-4.8-8.5-7.1c-4-3.3-8.1-6.6-12.3-9.6
		c-3.2-2.3-7.1-2.8-10.9-1.9c-4.5,1.1-9,2.5-12.8,5.4c-3.3,2.5-4.7,6.2-4.5,10.3c0.1,1.1,0.8,2.1,1.7,2.9c3.7,3.7,7.5,7.1,11.4,10.6
		c2.3,2.1,4.6,4.2,6.9,6.3c4.7,4.3,9.5,8.6,14.3,13c2.3,2.1,4.5,4.2,6.7,6.2c4.7,4.2,9.2,8.4,14,12.4c3.3,2.7,7.3,3.7,11.5,2.9
		c6.8-1.3,12.9-4.2,18-9.1c0.9-0.8,1.2-1.9,1.6-2.9c0.1-0.3,0.1-0.5,0.4-0.5"/>
	<path class="st2" d="M27.1,126.8c-0.3,2,0,4.1,0.2,6.1c0.3,2.8,0.2,5.7,1,8.5c0.4,1.5,1.1,2.9,2.2,4c5.1,4.9,10.2,9.9,15.4,14.8
		c5.3,5,10.6,10,15.9,15.1c4.5,4.4,9.1,8.7,13.8,12.9c2.7,2.4,5.2,5,8.2,7.2c5,3.6,10.3,3.7,15.9,1.3c3.9-1.7,7.4-3.9,10.6-6.6
		c3.4-2.9,4.6-6.7,4.3-11.1c-0.1-2-0.1-4-0.2-5.9c-0.1-1.8-0.3-3.6-0.4-5.6c1.1,0.3,1.7,1.3,2.5,2c5.8,4.8,11.5,9.6,17.3,14.4
		c4.2,3.5,8.4,6.9,12.7,10.3c2.4,1.9,5.1,3.2,7.9,4.2c3.9,1.5,7.9,2.1,12,2.4c2.2,0.1,4.3,0,6.5-0.1c0.3,0,0.7-0.2,0.9,0.1"/>
	<path class="st2" d="M27.9,136.6c4.8,5,10,9.6,15.1,14.3c1.4,1.3,2.7,2.6,4.1,3.9c3.3,3,6.5,6.2,9.8,9.2
		c5.1,4.7,10.1,9.4,15.2,14.1c3.1,2.9,6.2,5.8,9.4,8.6c3.2,2.7,6.9,3.8,11.2,3.7c6.2-0.3,11.2-3.1,16.1-6.4c2.2-1.4,4-3.2,5.3-5.4"
		/>
	<path class="st2" d="M60.4,136.6c0.5,2.8,2.5,4.1,5.4,4.4c2.6,0.3,5.1-0.2,7.3-1.8c1.7-1.2,2.5-2.7,2.2-4.6
		c-0.3-1.8-1.8-2.7-3.4-3.3c-3.6-1.2-6.9-0.5-9.9,1.9c-1,0.8-1.5,2-1.6,3.3"/>
	<path class="st2" d="M36.9,73.4c-0.3,1.9-0.1,3.8-0.1,5.7c0,0.6,0.1,1.2,0.1,1.9c0,4,0.5,7.9,1.1,11.9c0.4,2.7,0.8,5.4,1.2,8.1
		c0.3,2.1,1.6,3.8,2.9,5.4c1.1,1.3,2.7,2.1,3.8,3.4"/>
	<path class="st2" d="M63.3,136.9c0.2,1.4,1.1,2.1,2.4,2.5c1.9,0.6,3.8,0.2,5.4-0.8c1-0.6,1.6-1.6,1.3-2.9c-0.2-1.1-1.1-1.6-2.1-2
		c-2-0.7-3.8-0.3-5.5,0.7c-0.8,0.5-1.3,1.3-1.5,2.4"/>
	<path class="st2" d="M212.8,165.2c-2.4-0.6-4.3,0.6-6.1,1.8c-3.2,2-6.2,4.2-8.7,7.1c-1,1.2-2,2.4-2.4,3.9c-0.3,0.9-0.1,1.7-0.2,2.5
		"/>
	<path class="st2" d="M111.4,181.5c-0.4-0.4,0.3-1.3-0.9-1.4c-3,2.7-6.6,4.9-10.4,6.8c-1.1,0.5-0.5,1.3-0.6,1.9"/>
	<path class="st2" d="M218.5,156c-1.2,1.5-2.2,3.1-3.4,4.5c-0.7,0.9-1.6,1.6-2.4,2.4"/>
	<path class="st2" d="M107.9,88.5c-2.1,0.3-4.1,0.8-5.8,2.2c-3.1,2.7-2.4,6,1.2,7.5c3.4,1.4,7.3,0.9,10.1-1.7
		c2.8-2.5,2.2-5.9-1.8-7.5c-1.1-0.4-2.3-0.6-3.6-0.6"/>
	<path class="st2" d="M106.8,91.2c-0.9,0.3-1.9,0.6-2.6,1.2c-1.8,1.4-1.5,3.4,0.5,4.5c1.9,1,4.7,0.5,6.4-0.8
		c1.5-1.2,1.5-3.7-0.8-4.5c-1.1-0.4-2.2-0.3-3.3-0.4"/>
</g>
</svg>
