<svg id="Layer_1" data-name="Layer 1" xmlns="http://www.w3.org/2000/svg" viewBox="0 0 346.81 317.28"><title>Icon</title><path d="M432.13,391.39c1.66,1,1.08,2.77,1.43,4.14,2,8,7.41,13.77,12.84,19.46,17.46,18.3,35.32,36.2,54,53.2,14.7,13.35,29.72,26.35,45.25,38.77,11.27,9,22.46,18.12,34.21,26.52,7,5,15.1,7.19,23.61,7.9,13.31,1.11,24.87-3.35,35.65-10.83,17.15-11.9,34.61-23.34,51.69-35.34C711.36,480.8,732,466.47,752,451.43c5.14-3.85,10.38-7.47,14.26-12.76,3.36-4.57,4-9.9,3.54-15-.89-9.12-5.63-16.44-12.15-23C741.93,385,726.38,369,710,353.88c-13.73-12.69-27.81-25-42-37.15-13.68-11.78-28-22.77-42-34.08-12.08-9.71-26-13.37-41.24-11.91-6.28.6-12.12,3.12-17.64,6.27-14.22,8.14-28.3,16.5-42,25.51-18.56,12.22-36.68,25-54,39-9.63,7.72-19.35,15.33-28.45,23.68a30.34,30.34,0,0,0-9.72,18.74c-.75,5.56-2.72,10.76-4.17,16.12-1.23,4.56-1.16,9.22-1.12,13.88" transform="translate(-424.17 -269.42)" style="fill:none;stroke:#000;stroke-linecap:round;stroke-linejoin:round;stroke-width:2px"/><path d="M427.25,415c-4.31,15.54-2.3,29.28,9.66,41.34,18.75,18.89,37.38,37.89,57.12,55.75,18.69,16.91,37.73,33.41,57.68,48.83,6.77,5.23,13.28,10.8,20.3,15.69,12.43,8.66,26.17,10.67,40.87,7.95,3.93-.73,8-.83,12-1.16,1.45-.12,3.11.28,3.37-1.89" transform="translate(-424.17 -269.42)" style="fill:none;stroke:#000;stroke-linecap:round;stroke-linejoin:round;stroke-width:2px"/><path d="M428,415c2.42,5.06,4.25,10.45,8.25,14.63,4.64,4.86,9.2,9.8,13.89,14.61,17.16,17.62,35,34.55,53.26,51,22.46,20.2,45.81,39.34,69.81,57.67a49.67,49.67,0,0,0,31.05,10.29c8.45,0,16.59-.82,24-5.28a7.31,7.31,0,0,1,2.6-.41" transform="translate(-424.17 -269.42)" style="fill:none;stroke:#000;stroke-linecap:round;stroke-linejoin:round;stroke-width:2px"/><path d="M753.5,493c1.56,4.23-1.67,7.21-3.14,10.44a98,98,0,0,1-14.15,22.15,145.65,145.65,0,0,1-39.29,33.11,182.69,182.69,0,0,1-50.68,19.77,115.85,115.85,0,0,1-15.38,2.88c-3.05.28-6.24-.86-9.36-1.36" transform="translate(-424.17 -269.42)" style="fill:none;stroke:#000;stroke-linecap:round;stroke-linejoin:round;stroke-width:2px"/><path d="M762.13,464.14c-.37-.12-.86-.14-1.11-.39-5-5.2-10.32-3.24-15.37-.32-14.49,8.37-25.29,20.14-31.82,35.62a23.26,23.26,0,0,0-1.66,5.58c-.75,5,2.65,7.42,5.71,10.14" transform="translate(-424.17 -269.42)" style="fill:none;stroke:#000;stroke-linecap:round;stroke-linejoin:round;stroke-width:2px"/><path d="M680.75,531.64c1.87-5.44.46-10.47-3.76-13.11-3.65-2.28-7.21-.63-10.46.81C659,522.7,652.63,528,647.07,534a72.86,72.86,0,0,0-14.67,22.26c-1.55,3.88-2.3,8,.05,11.75,2.49,3.92,10.73,5.54,14.47,2.57,5.27-4.17,11.42-7,16.29-11.81A111.85,111.85,0,0,0,676,543.1,21,21,0,0,0,679.63,533" transform="translate(-424.17 -269.42)" style="fill:none;stroke:#000;stroke-linecap:round;stroke-linejoin:round;stroke-width:2px"/><path d="M752.38,469.77c2.36,2.2,2.17,4.72,1.15,7.51a49.13,49.13,0,0,1-24,27.32,9,9,0,0,1-7.85.42" transform="translate(-424.17 -269.42)" style="fill:none;stroke:#000;stroke-linecap:round;stroke-linejoin:round;stroke-width:2px"/><path d="M672.13,527.14c2.12,3.38,1.43,6.87,0,10.1a52,52,0,0,1-21.74,23.95c-2.9,1.67-6.25,3.21-9.71.82" transform="translate(-424.17 -269.42)" style="fill:none;stroke:#000;stroke-linecap:round;stroke-linejoin:round;stroke-width:2px"/><path d="M679.25,532a6,6,0,0,1-.73-1.5c-.75-4.32-2.17-4.4-6.42-3.93-7.55.84-12.24,5.91-17.12,10.42a54.31,54.31,0,0,0-14.07,20.1c-.83,2.13-.79,4.31-1.31,6.43-.57,2.31,2.1,4.58,4.76,4.9,1.28.15,2.51-1.07,3.76,0" transform="translate(-424.17 -269.42)" style="fill:none;stroke:#000;stroke-linecap:round;stroke-linejoin:round;stroke-width:2px"/><path d="M752,469.39c-3.4-.18-5.69,2-8.26,3.73-8.89,5.83-15.32,13.81-20.67,22.86-2.12,3.59-2.06,7.47-2.51,11.29a3.33,3.33,0,0,0,3.32,3.6c3.38-.07,7,.58,10.11-1.38,5.8-3.7,10.49-8.71,15.43-13.43,3.72-3.56,6-7.91,8.34-12.35,1.88-3.51,1.91-7,1.66-10.56-.27-3.79-3.05-5.09-7-3.76" transform="translate(-424.17 -269.42)" style="fill:none;stroke:#000;stroke-linecap:round;stroke-linejoin:round;stroke-width:2px"/><path d="M731,511.39c-2.33,2.92-6,3.44-9,3.14-3.16-.32-5.17,1.08-7.1,2.56-11.11,8.51-22.7,16.33-34.12,24.39a6.28,6.28,0,0,1-3.81,1" transform="translate(-424.17 -269.42)" style="fill:none;stroke:#000;stroke-linecap:round;stroke-linejoin:round;stroke-width:2px"/><path d="M695.38,486.64c4,.76,4.07-2.73,4.77-4.91,1.12-3.51-1.5-8.47-5.15-10.84-2.63-1.71-9.2-1.5-11.62.37a7.08,7.08,0,0,0-1.12,10.12c3.45,4.46,8.51,6.54,12.75,5.25" transform="translate(-424.17 -269.42)" style="fill:none;stroke:#000;stroke-linecap:round;stroke-linejoin:round;stroke-width:2px"/><path d="M711.5,503.52c-5.12,2.07-9,6.07-13.48,9-5.57,3.64-11,7.47-16.52,11.22" transform="translate(-424.17 -269.42)" style="fill:none;stroke:#000;stroke-linecap:round;stroke-linejoin:round;stroke-width:2px"/><path d="M683.75,552.64c4.46-3.06,9.15-5.76,13.57-8.91,3.92-2.79,6.41-6.65,9.26-10.26,1.44-1.83,2.92-2.81,5.3-2.64a3.34,3.34,0,0,1,3,2.32c.47,1.06-.28,1.87-1.07,2.62A108.86,108.86,0,0,1,689.37,553c-3.8,2-4.6,1.77-7.23-2,.87-2,2.76-2.64,4.56-3.68a104,104,0,0,0,11.23-7.5,5.21,5.21,0,0,1,3.44-1" transform="translate(-424.17 -269.42)" style="fill:none;stroke:#000;stroke-linecap:round;stroke-linejoin:round;stroke-width:2px"/><path d="M767.75,437.52c1.26,3.3-.17,6.51-.4,9.75-.4,5.66-2.22,10.94-4.42,16.15-1.25,3,.52,6.24-.41,9.36-.6,2-.06,4.54-2.65,5.62" transform="translate(-424.17 -269.42)" style="fill:none;stroke:#000;stroke-linecap:round;stroke-linejoin:round;stroke-width:2px"/><path d="M695.38,486.27c2-7.12-4.75-13.71-13.87-9.75" transform="translate(-424.17 -269.42)" style="fill:none;stroke:#000;stroke-linecap:round;stroke-linejoin:round;stroke-width:2px"/><path d="M634.25,571.39c-4.4,3.46-9.66,5.49-14.27,8.6-.26.17-.73,0-1.11,0" transform="translate(-424.17 -269.42)" style="fill:none;stroke:#000;stroke-linecap:round;stroke-linejoin:round;stroke-width:2px"/><path d="M712.63,535.39c-1.9-1.76-4,0-6-.37" transform="translate(-424.17 -269.42)" style="fill:none;stroke:#000;stroke-linecap:round;stroke-linejoin:round;stroke-width:2px"/></svg>