<svg id="svg2" xmlns="http://www.w3.org/2000/svg" viewBox="0 0 171.94 160.31"><title>icon</title><path d="M37.4,202.55c1.91-4.09,3.68-8,5.5-11.79q11.88-25.14,23.77-50.27,22.92-48.51,45.81-97a1.77,1.77,0,0,1,1.87-1.2q9.09.07,18.18,0a1.65,1.65,0,0,1,1.77,1.09q18.49,39.27,37,78.51l30.59,64.8,7,14.73c.15.31.27.63.47,1.08-.5,0-.91.06-1.32.06-5.88,0-11.77,0-17.65,0a1.91,1.91,0,0,1-2-1.31q-16.77-35.52-33.6-71-15-31.67-30-63.32c-.63-1.32-1.33-2.59-2.13-4.14-1.19,2.47-2.29,4.67-3.32,6.9q-15,32.62-29.93,65.25c-9.1,20-18.08,40-27.14,60.07-1,2.3-2.17,4.55-3.32,6.8a1.46,1.46,0,0,1-1,.71C51.1,202.56,44.39,202.55,37.4,202.55Z" transform="translate(-37.4 -42.26)"/><path d="M70.43,202.55c2.1-4.54,4.08-8.84,6.07-13.13Q96.86,145.7,117.19,102a2.33,2.33,0,0,1,2.61-1.64c2.22.13,4.44.08,6.67,0a1.61,1.61,0,0,1,1.75,1.12q13.53,28.69,27.13,57.34,10.13,21.41,20.26,42.83c.11.23.21.47.37.82H102.67l4.63-14.21h12.57c9.81,0,19.61,0,29.42,0,1.74,0,1.82-.46,1.21-1.77q-13.67-29.49-27.28-59c-.16-.34-.36-.65-.65-1.18-1.13,2.5-2.19,4.77-3.2,7.07q-12.3,28.17-24.58,56.34c-1.72,3.94-3.3,7.94-5,11.89-.17.39-.68.88-1,.89C82.75,202.56,76.74,202.55,70.43,202.55Z" transform="translate(-37.4 -42.26)"/></svg>